<svg width="432" height="421" viewBox="0 0 432 421" fill="none" xmlns="http://www.w3.org/2000/svg">
    <path d="M370.471 157.554C347.987 67.6101 270.297 2.68341 179.106 0.0792588C130.895 -1.29749 80.1649 14.9685 43.2294 71.8889C-22.7969 173.64 47.2869 243.954 96.1474 277.365C119.753 293.54 141.023 312.988 159.341 335.147C192.345 374.989 255.836 424.498 331.452 346.925C386.258 290.699 385.448 217.465 370.471 157.554Z" fill="#F2F2F2"/>
    <path d="M431.499 357.854C431.499 379.932 336.795 421 217.502 421C98.2082 421 0 382.478 0 360.4C0 338.322 98.2082 341.049 217.502 341.049C336.795 341.049 431.499 335.776 431.499 357.854Z" fill="#3F3D56"/>
    <path opacity="0.1" d="M431.499 357.854C431.499 379.932 336.795 421 217.502 421C98.2082 421 0 382.478 0 360.4C0 338.322 98.2082 341.049 217.502 341.049C336.795 341.049 431.499 335.776 431.499 357.854Z" fill="black"/>
    <path d="M216 400.121C335.293 400.121 432 382.223 432 360.145C432 338.067 335.293 320.169 216 320.169C96.7065 320.169 0 338.067 0 360.145C0 382.223 96.7065 400.121 216 400.121Z" fill="#3F3D56"/>
    <path d="M297.774 224.189V331.102L315.353 360.246L316.691 362.463H386.053L387.454 224.189H297.774Z" fill="#2F2E41"/>
    <path opacity="0.1" d="M297.774 224.189V331.102L315.353 360.246L316.432 224.189H297.774Z" fill="black"/>
    <path d="M130.325 221.338V328.251L112.746 357.395L111.408 359.612H42.0457L40.6445 221.338H130.325Z" fill="#2F2E41"/>
    <path opacity="0.1" d="M130.325 221.338V328.251L112.746 357.395L111.667 221.338H130.325Z" fill="black"/>
    <path d="M408.473 219.199V225.614H31.5364V216.349L66.5674 197.817H377.645L408.473 219.199Z" fill="#2F2E41"/>
    <path opacity="0.1" d="M408.473 219.199V225.614H31.5364V216.349L408.473 219.199Z" fill="black"/>
    <path opacity="0.1" d="M85.4844 251.274H68.6694L61.6633 246.284H93.1913L85.4844 251.274Z" fill="black"/>
    <path opacity="0.1" d="M85.4844 271.943H68.6694L61.6633 266.954H93.1913L85.4844 271.943Z" fill="black"/>
    <path opacity="0.1" d="M85.4844 301.166H68.6694L61.6633 296.177H93.1913L85.4844 301.166Z" fill="black"/>
    <path opacity="0.1" d="M85.4844 330.389H68.6694L61.6633 325.4H93.1913L85.4844 330.389Z" fill="black"/>
    <path opacity="0.1" d="M342.614 254.124H359.429L366.435 249.135H334.907L342.614 254.124Z" fill="black"/>
    <path opacity="0.1" d="M342.614 274.794H359.429L366.435 269.805H334.907L342.614 274.794Z" fill="black"/>
    <path opacity="0.1" d="M342.614 304.017H359.429L366.435 299.028H334.907L342.614 304.017Z" fill="black"/>
    <path opacity="0.1" d="M342.614 333.24H359.429L366.435 328.251H334.907L342.614 333.24Z" fill="black"/>
    <path d="M266.566 179.981L264.229 195.16C264.229 195.16 252.724 201.378 260.814 201.561C268.903 201.744 307.015 201.561 307.015 201.561C307.015 201.561 314.386 201.561 302.7 194.977L300.363 179.066L266.566 179.981Z" fill="#3F3D56"/>
    <path opacity="0.1" d="M259.186 201.396C260.757 200.104 262.446 198.967 264.229 198L266.566 182.821L300.363 182.853L302.7 197.817C304.621 198.826 306.431 200.037 308.101 201.432C309.602 201.084 311.242 199.79 302.7 194.977L300.363 179.066L266.566 179.981L264.229 195.16C264.229 195.16 254.561 200.386 259.186 201.396Z" fill="black"/>
    <path d="M354.065 74.1826H212.505C209.549 74.1826 207.152 76.621 207.152 79.6289V176.638C207.152 179.645 209.549 182.084 212.505 182.084H354.065C357.021 182.084 359.418 179.645 359.418 176.638V79.6289C359.418 76.621 357.021 74.1826 354.065 74.1826Z" fill="#3F3D56"/>
    <path opacity="0.1" d="M354.295 79.9435H212.275V160.778H354.295V79.9435Z" fill="#2F2E41"/>
    <path d="M283.285 78.2975C283.782 78.2975 284.184 77.8881 284.184 77.3831C284.184 76.8781 283.782 76.4687 283.285 76.4687C282.789 76.4687 282.386 76.8781 282.386 77.3831C282.386 77.8881 282.789 78.2975 283.285 78.2975Z" fill="#F2F2F2"/>
    <path d="M359.418 167.179V176.638C359.418 177.353 359.28 178.061 359.011 178.722C358.742 179.383 358.348 179.983 357.85 180.489C357.353 180.995 356.763 181.396 356.113 181.669C355.464 181.943 354.768 182.084 354.065 182.084H212.505C211.802 182.084 211.106 181.943 210.457 181.669C209.807 181.396 209.217 180.995 208.72 180.489C208.223 179.983 207.828 179.383 207.559 178.722C207.29 178.061 207.152 177.353 207.152 176.638V167.179H359.418Z" fill="#3F3D56"/>
    <path d="M283.285 178.152C285.171 178.152 286.701 176.596 286.701 174.677C286.701 172.758 285.171 171.202 283.285 171.202C281.399 171.202 279.869 172.758 279.869 174.677C279.869 176.596 281.399 178.152 283.285 178.152Z" fill="#F2F2F2"/>
    <path d="M277.962 211.436V213.266H181.245V211.803L181.379 211.436L183.762 204.853H275.985L277.962 211.436Z" fill="#3F3D56"/>
    <path d="M315.182 209.646C315.006 210.413 314.341 211.221 312.838 211.985C307.445 214.729 296.479 211.254 296.479 211.254C296.479 211.254 288.03 209.791 288.03 205.95C288.267 205.785 288.514 205.635 288.77 205.502C291.038 204.282 298.556 201.27 311.886 205.63C312.868 205.943 313.745 206.528 314.42 207.319C314.719 207.618 314.944 207.985 315.076 208.389C315.209 208.794 315.245 209.225 315.182 209.646V209.646Z" fill="#3F3D56"/>
    <path opacity="0.1" d="M315.182 209.646C308.581 212.219 302.697 212.411 296.659 208.145C293.613 205.994 290.847 205.462 288.77 205.502C291.038 204.282 298.556 201.27 311.886 205.63C312.868 205.943 313.745 206.528 314.42 207.319C314.719 207.618 314.944 207.985 315.076 208.389C315.209 208.794 315.245 209.225 315.182 209.646V209.646Z" fill="black"/>
    <path d="M306.906 208.145C308.196 208.145 309.243 207.817 309.243 207.413C309.243 207.009 308.196 206.682 306.906 206.682C305.615 206.682 304.569 207.009 304.569 207.413C304.569 207.817 305.615 208.145 306.906 208.145Z" fill="#F2F2F2"/>
    <path opacity="0.1" d="M277.962 211.436V213.266H181.245V211.803L181.379 211.436H277.962Z" fill="black"/>
    <path d="M197.548 98.8654C208.122 98.8654 216.694 90.1453 216.694 79.3885C216.694 68.6317 208.122 59.9116 197.548 59.9116C186.974 59.9116 178.403 68.6317 178.403 79.3885C178.403 90.1453 186.974 98.8654 197.548 98.8654Z" fill="#FFB9B9"/>
    <path d="M183.441 89.127V119.88H214.678C214.678 119.88 210.648 94.2525 212.663 86.5642L183.441 89.127Z" fill="#FFB9B9"/>
    <path d="M245.412 130.644C245.412 130.644 215.686 115.78 215.686 114.754C215.686 113.729 212.663 107.066 210.648 107.066C208.632 107.066 191.502 101.428 181.929 109.629L180.922 116.292L144.142 140.895L154.219 178.311C154.219 178.311 160.769 185.486 158.753 190.612C156.738 195.737 160.265 221.878 160.265 221.878L239.366 219.315V184.461C239.366 184.461 241.885 176.261 243.397 173.698C244.908 171.135 243.397 163.447 243.397 163.447L255.488 148.07C255.488 148.07 253.977 133.719 245.412 130.644Z" fill="#D0CDE1"/>
    <path opacity="0.1" d="M145.402 153.452L147.669 140.895C147.669 140.895 134.57 198.813 136.081 205.476C137.593 212.139 148.677 222.39 150.188 222.903C151.7 223.415 165.807 178.823 165.807 178.823L145.402 153.452Z" fill="black"/>
    <path d="M152.707 139.357L144.142 140.895C144.142 140.895 131.043 198.813 132.554 205.476C134.066 212.139 145.15 222.39 146.661 222.903C148.173 223.415 162.28 178.823 162.28 178.823L152.707 139.357Z" fill="#D0CDE1"/>
    <path opacity="0.1" d="M248.183 156.527L252.465 148.07C252.465 148.07 258.511 205.988 254.481 211.627C250.45 217.265 234.506 219.374 234.506 219.374L234.328 177.286L248.183 156.527Z" fill="black"/>
    <path d="M248.939 141.407L255.488 148.07C255.488 148.07 261.534 205.989 257.504 211.627C253.473 217.265 237.529 219.374 237.529 219.374L237.351 177.286L248.939 141.407Z" fill="#D0CDE1"/>
    <path d="M151.196 229.566C151.196 229.566 136.585 223.928 134.066 234.691C131.547 245.455 140.112 293.635 140.112 293.635C140.112 293.635 145.654 330.026 149.181 331.051C152.707 332.076 168.326 332.588 170.845 327.975C173.364 323.363 163.288 276.208 163.288 276.208L221.732 275.183C221.732 275.183 218.205 316.187 216.19 319.775C214.175 323.363 214.175 335.664 216.19 335.664C218.205 335.664 240.374 334.639 241.885 331.563C243.397 328.488 251.962 259.294 251.962 259.294C251.962 259.294 259.015 235.204 250.954 236.742C242.893 238.279 151.196 229.566 151.196 229.566Z" fill="#3F3D56"/>
    <path d="M237.351 329.513C237.351 329.513 242.389 325.925 244.908 329.513C247.427 333.101 248.435 337.201 237.351 343.352C226.267 349.503 217.701 347.965 217.701 346.94V332.076L237.351 329.513Z" fill="#2F2E41"/>
    <path d="M150.188 327.976C150.188 327.976 145.15 324.388 142.631 327.976C140.112 331.563 139.104 335.664 150.188 341.814C161.273 347.965 169.838 346.427 169.838 345.402V330.538L150.188 327.976Z" fill="#2F2E41"/>
    <path d="M197.672 54.83C195.765 54.7626 193.862 55.0386 192.049 55.6454C190.644 56.2201 189.301 56.9428 188.043 57.8016L179.591 63.1487C178.873 63.4647 178.263 63.9897 177.839 64.6577C177.414 65.3256 177.194 66.1065 177.205 66.9019L176.148 74.9489C175.882 76.9796 175.636 79.1513 176.53 80.9874C177.276 82.5198 178.698 83.5685 179.868 84.7967C181.739 86.7705 182.999 89.2606 183.49 91.9572C184.095 95.3169 183.708 99.3628 186.321 101.507C187.736 102.668 189.665 102.887 191.48 102.995C196.443 103.29 201.422 103.095 206.348 102.413C207.131 102.354 207.894 102.136 208.594 101.773C209.482 101.238 210.042 100.295 210.565 99.389C212.452 96.1198 214.398 92.6421 214.377 88.8507C214.367 86.9751 213.895 84.9606 214.78 83.3153C215.248 82.616 215.756 81.9452 216.301 81.3064C217.397 79.7395 217.61 77.7264 217.789 75.8118C218.36 69.6964 217.763 65.0426 213.333 60.7349C209.197 56.7136 203.313 54.867 197.672 54.83Z" fill="#2F2E41"/>
    <path d="M150.643 290.118L133.828 377.074H142.235L158.35 291.544L150.643 290.118Z" fill="#2F2E41"/>
    <path d="M204.591 297.246L215.1 397.032H222.107L215.801 294.395L204.591 297.246Z" fill="#2F2E41"/>
    <path d="M233.317 294.395L248.03 360.681H255.036L241.024 292.97L233.317 294.395Z" fill="#2F2E41"/>
    <path d="M177.267 294.395L175.165 347.139H180.77L184.974 294.395H177.267Z" fill="#2F2E41"/>
    <path d="M138.732 280.853C138.732 280.853 127.522 204.588 159.05 202.45C190.578 200.312 235.418 202.45 235.418 202.45C235.418 202.45 261.342 200.312 253.635 280.853C253.635 280.853 260.641 304.374 197.585 302.235C134.528 300.097 138.732 280.853 138.732 280.853Z" fill="#6C63FF"/>
    <path d="M425.993 311.997C425.993 325.296 418.221 329.939 408.635 329.939C399.048 329.939 391.276 325.296 391.276 311.997C391.276 298.697 408.635 281.779 408.635 281.779C408.635 281.779 425.993 298.697 425.993 311.997Z" fill="#6C63FF"/>
    <path d="M408.18 316.775L415.578 303.005L408.208 315.029L408.288 310.024L413.387 300.062L408.309 308.7L408.453 299.699L413.913 291.768L408.475 298.284L408.565 281.779L408.025 302.692L402.496 294.082L407.958 304.457L407.441 314.509L407.426 314.242L401.026 305.146L407.406 315.185L407.341 316.442L407.33 316.461L407.335 316.564L406.023 329.979H407.776L407.987 328.895L414.352 318.88L408.002 327.905L408.18 316.775Z" fill="#3F3D56"/>
    <path d="M419.721 358.788H399.026L393.678 328.037H423.906L419.721 358.788Z" fill="#2F2E41"/>
    <path d="M115.634 150.89H72.584V202.235H115.634V150.89Z" fill="#3F3D56"/>
    <path d="M108.954 158.857H79.2642V194.268H108.954V158.857Z" fill="#F2F2F2"/>
</svg>
